<svg width="60" height="60" viewBox="0 0 60 60" fill="none" xmlns="http://www.w3.org/2000/svg">
<path d="M22.5355 36.3518C22.5355 35.9558 22.6455 35.6478 22.8655 35.4278C23.1002 35.1931 23.4082 35.0758 23.7895 35.0758C24.1855 35.0758 24.5009 35.1931 24.7355 35.4278C24.9702 35.6478 25.0875 35.9558 25.0875 36.3518C25.0875 36.7331 24.9702 37.0411 24.7355 37.2758C24.5009 37.5104 24.1855 37.6278 23.7895 37.6278C23.4082 37.6278 23.1002 37.5104 22.8655 37.2758C22.6455 37.0411 22.5355 36.7331 22.5355 36.3518ZM28.6801 36.3518C28.6801 35.9558 28.7901 35.6478 29.0101 35.4278C29.2447 35.1931 29.5527 35.0758 29.9341 35.0758C30.3301 35.0758 30.6454 35.1931 30.8801 35.4278C31.1147 35.6478 31.2321 35.9558 31.2321 36.3518C31.2321 36.7331 31.1147 37.0411 30.8801 37.2758C30.6454 37.5104 30.3301 37.6278 29.9341 37.6278C29.5527 37.6278 29.2447 37.5104 29.0101 37.2758C28.7901 37.0411 28.6801 36.7331 28.6801 36.3518ZM34.8246 36.3518C34.8246 35.9558 34.9346 35.6478 35.1546 35.4278C35.3892 35.1931 35.6972 35.0758 36.0786 35.0758C36.4746 35.0758 36.7899 35.1931 37.0246 35.4278C37.2592 35.6478 37.3766 35.9558 37.3766 36.3518C37.3766 36.7331 37.2592 37.0411 37.0246 37.2758C36.7899 37.5104 36.4746 37.6278 36.0786 37.6278C35.6972 37.6278 35.3892 37.5104 35.1546 37.2758C34.9346 37.0411 34.8246 36.7331 34.8246 36.3518Z" fill="black"/>
</svg>
